<svg viewBox="0 0 24 24" xmlns="http://www.w3.org/2000/svg">
  <path d="M4.70553 0.00601196C2.12033 0.00601196 0.00448608 2.1218 0.00448608 4.70706V19.2952C0.00448608 21.8805 2.12028 23.9955 4.70553 23.9955H19.2937C21.879 23.9955 23.994 21.8805 23.994 19.2952V4.70706C23.994 2.12185 21.879 0.00601196 19.2937 0.00601196H4.70553ZM5.88792 3.96476C7.12747 3.96476 7.89098 4.77851 7.91455 5.84816C7.91455 6.8942 7.12742 7.73082 5.86394 7.73082H5.84069C4.62473 7.73082 3.8388 6.89425 3.8388 5.84816C3.8388 4.77853 4.64851 3.96476 5.88789 3.96476H5.88792ZM16.5698 8.9642C18.9537 8.9642 20.7408 10.5223 20.7408 13.8707V20.1214H17.1179V14.2898C17.1179 12.8243 16.5936 11.8245 15.2825 11.8245C14.2816 11.8245 13.685 12.4984 13.4231 13.1494C13.3274 13.3823 13.3039 13.7075 13.3039 14.0333V20.1214H9.681C9.681 20.1214 9.72854 10.2427 9.681 9.21985H13.3046V10.7636C13.7861 10.0208 14.6472 8.96418 16.5698 8.96418V8.9642ZM4.05249 9.22064H7.67537V20.1215H4.05249V9.22064Z"/>
</svg>