<svg viewBox="0 0 30 31" xmlns="http://www.w3.org/2000/svg">
  <path d="M0.60156 15.0033H3.90791C4.22874 15.0033 4.49164 15.2551 4.50724 15.5715C4.80134 21.1081 9.38879 25.5061 15.0011 25.5061C16.3892 25.5061 17.7126 25.2365 18.9246 24.7486C18.9959 24.7196 19.0717 24.704 19.1519 24.704C19.3167 24.704 19.466 24.7709 19.5752 24.8778L22.0616 27.3643C22.1708 27.4734 22.2377 27.6227 22.2377 27.7898C22.2377 28.0215 22.1062 28.2221 21.9146 28.3223C19.8492 29.3984 17.4965 30.0067 15.0011 30.0067C6.92239 30.0067 0.331972 23.6279 0.002228 15.6339C0.002228 15.625 0 15.6138 0 15.6027C0 15.2729 0.269588 15.0033 0.60156 15.0033ZM10.2243 4.92388L10.427 5.12885C10.5362 5.23802 10.6877 5.30486 10.8526 5.30486C10.9328 5.30486 11.0085 5.28927 11.0776 5.2603C12.283 4.77014 13.6108 4.50056 15.0011 4.50056C15.9814 4.50056 16.9306 4.63424 17.8307 4.886C18.0045 4.93502 18.1448 5.05978 18.2183 5.22243L19.339 7.7267C19.4326 7.93613 19.642 8.08318 19.8871 8.08318H22.6276C22.8147 8.08318 22.9796 8.16784 23.091 8.29929C24.4879 9.98143 25.3702 12.1047 25.495 14.4307C25.5084 14.7493 25.7713 15.0033 26.0943 15.0033H29.4007C29.7326 15.0033 30 14.7338 30 14.404C30 14.3951 30 14.3862 30 14.3773C29.8418 10.5295 28.2354 7.05607 25.7089 4.48719C25.5997 4.37579 25.4482 4.30895 25.2811 4.30895H22.3401C22.0951 4.30895 21.8856 4.1619 21.7921 3.95247L20.5889 1.26328C20.5243 1.11846 20.4018 1.0026 20.2503 0.946899C18.6261 0.3342 16.8526 0 15.0011 0C12.508 0 10.1574 0.608244 8.08764 1.68214C7.8938 1.78017 7.76235 1.98292 7.76235 2.21463C7.76235 2.38173 7.82919 2.53323 7.94059 2.64241L10.2243 4.92388ZM3.23951 5.67917C3.9547 4.77906 4.77014 3.96361 5.67026 3.24842C5.77274 3.16599 5.9042 3.1192 6.04456 3.1192C6.21166 3.1192 6.36094 3.18604 6.47011 3.29521L13.515 10.3357C13.6242 10.4449 13.6911 10.5941 13.6911 10.759C13.6911 10.9261 13.6242 11.0754 13.515 11.1846L11.1801 13.5173C11.0709 13.6264 10.9216 13.6933 10.7545 13.6933C10.5897 13.6933 10.4382 13.6264 10.3312 13.5173L3.28407 6.47679C3.17713 6.36762 3.11029 6.21834 3.11029 6.05347C3.11029 5.91088 3.15707 5.78166 3.23951 5.67917ZM23.5321 26.7115L16.4872 19.671C16.378 19.5618 16.3112 19.4125 16.3112 19.2477C16.3112 19.0806 16.378 18.9313 16.4872 18.8221L18.8221 16.4894C18.9313 16.3802 19.0806 16.3134 19.2477 16.3134C19.4125 16.3134 19.5641 16.3802 19.671 16.4894L26.7182 23.5299C26.8251 23.6391 26.8919 23.7883 26.8919 23.9532C26.8919 24.0958 26.8452 24.225 26.7627 24.3275C26.0475 25.2276 25.2321 26.0431 24.332 26.7583C24.2295 26.8407 24.098 26.8875 23.9577 26.8875C23.7906 26.8875 23.6413 26.8206 23.5321 26.7115ZM14.5756 12.2451L12.2406 14.58C12.1315 14.687 12.0646 14.8385 12.0646 15.0033C12.0646 15.1682 12.1315 15.3197 12.2406 15.4267L14.5756 17.7616C14.6847 17.8708 14.8362 17.9376 15.0011 17.9376C15.166 17.9376 15.3175 17.8708 15.4267 17.7616L17.7616 15.4267C17.8708 15.3197 17.9376 15.1682 17.9376 15.0033C17.9376 14.8385 17.8708 14.687 17.7616 14.58L15.4267 12.2451C15.3175 12.1359 15.166 12.0691 15.0011 12.0691C14.8362 12.0691 14.6847 12.1359 14.5756 12.2451Z" fill="#C7C7C7"/>
</svg>

