<svg xmlns="http://www.w3.org/2000/svg" viewBox="0 0 30 30.0067">
  <path d="M 0.6016 15.0033 H 3.9079 C 4.2287 15.0033 4.4916 15.2551 4.5072 15.5715 C 4.8013 21.1081 9.3888 25.5061 15.0011 25.5061 C 16.3892 25.5061 17.7126 25.2365 18.9246 24.7486 C 18.9959 24.7196 19.0717 24.704 19.1519 24.704 C 19.3167 24.704 19.466 24.7709 19.5752 24.8778 L 22.0616 27.3643 C 22.1708 27.4734 22.2377 27.6227 22.2377 27.7898 C 22.2377 28.0215 22.1062 28.2221 21.9146 28.3223 C 19.8492 29.3984 17.4965 30.0067 15.0011 30.0067 C 6.9224 30.0067 0.332 23.6279 0.0022 15.6339 C 0.0022 15.625 0 15.6138 0 15.6027 C 0 15.2729 0.2696 15.0033 0.6016 15.0033 Z M 10.2243 4.9239 L 10.427 5.1288 C 10.5362 5.238 10.6877 5.3049 10.8526 5.3049 C 10.9328 5.3049 11.0085 5.2893 11.0776 5.2603 C 12.283 4.7701 13.6108 4.5006 15.0011 4.5006 C 15.9814 4.5006 16.9306 4.6342 17.8307 4.886 C 18.0045 4.935 18.1448 5.0598 18.2183 5.2224 L 19.339 7.7267 C 19.4326 7.9361 19.642 8.0832 19.8871 8.0832 H 22.6276 C 22.8147 8.0832 22.9796 8.1678 23.091 8.2993 C 24.4879 9.9814 25.3702 12.1047 25.495 14.4307 C 25.5084 14.7493 25.7713 15.0033 26.0943 15.0033 H 29.4007 C 29.7326 15.0033 30 14.7338 30 14.404 C 30 14.3951 30 14.3862 30 14.3773 C 29.8418 10.5295 28.2354 7.0561 25.7089 4.4872 C 25.5997 4.3758 25.4482 4.309 25.2811 4.309 H 22.3401 C 22.0951 4.309 21.8856 4.1619 21.7921 3.9525 L 20.5889 1.2633 C 20.5243 1.1185 20.4018 1.0026 20.2503 0.9469 C 18.6261 0.3342 16.8526 0 15.0011 0 C 12.508 0 10.1574 0.6082 8.0876 1.6821 C 7.8938 1.7802 7.7623 1.9829 7.7623 2.2146 C 7.7623 2.3817 7.8292 2.5332 7.9406 2.6424 L 10.2243 4.9239 Z M 3.2395 5.6792 C 3.9547 4.7791 4.7701 3.9636 5.6703 3.2484 C 5.7727 3.166 5.9042 3.1192 6.0446 3.1192 C 6.2117 3.1192 6.3609 3.186 6.4701 3.2952 L 13.515 10.3357 C 13.6242 10.4449 13.6911 10.5941 13.6911 10.759 C 13.6911 10.9261 13.6242 11.0754 13.515 11.1846 L 11.1801 13.5173 C 11.0709 13.6264 10.9216 13.6933 10.7545 13.6933 C 10.5897 13.6933 10.4382 13.6264 10.3312 13.5173 L 3.2841 6.4768 C 3.1771 6.3676 3.1103 6.2183 3.1103 6.0535 C 3.1103 5.9109 3.1571 5.7817 3.2395 5.6792 Z M 23.5321 26.7115 L 16.4872 19.671 C 16.378 19.5618 16.3112 19.4125 16.3112 19.2477 C 16.3112 19.0806 16.378 18.9313 16.4872 18.8221 L 18.8221 16.4894 C 18.9313 16.3802 19.0806 16.3134 19.2477 16.3134 C 19.4125 16.3134 19.5641 16.3802 19.671 16.4894 L 26.7182 23.5299 C 26.8251 23.6391 26.8919 23.7883 26.8919 23.9532 C 26.8919 24.0958 26.8452 24.225 26.7627 24.3275 C 26.0475 25.2276 25.2321 26.0431 24.332 26.7583 C 24.2295 26.8407 24.098 26.8875 23.9577 26.8875 C 23.7906 26.8875 23.6413 26.8206 23.5321 26.7115 Z M 14.5756 12.2451 L 12.2406 14.58 C 12.1315 14.687 12.0646 14.8385 12.0646 15.0033 C 12.0646 15.1682 12.1315 15.3197 12.2406 15.4267 L 14.5756 17.7616 C 14.6847 17.8708 14.8362 17.9376 15.0011 17.9376 C 15.166 17.9376 15.3175 17.8708 15.4267 17.7616 L 17.7616 15.4267 C 17.8708 15.3197 17.9376 15.1682 17.9376 15.0033 C 17.9376 14.8385 17.8708 14.687 17.7616 14.58 L 15.4267 12.2451 C 15.3175 12.1359 15.166 12.0691 15.0011 12.0691 C 14.8362 12.0691 14.6847 12.1359 14.5756 12.2451 Z" fill="#C7C7C7"/>
</svg>