<?xml version="1.0" encoding="UTF-8" standalone="no"?>
<!DOCTYPE svg PUBLIC "-//W3C//DTD SVG 20010904//EN"
              "http://www.w3.org/TR/2001/REC-SVG-20010904/DTD/svg10.dtd">

<svg xmlns="http://www.w3.org/2000/svg"
     width="1.67901in" height="1.67901in"
     viewBox="0 0 136 136">
  <path id="Imported Path #4"
        fill="none" stroke="black" stroke-width="1"
        d="M 3.37,68.00
           C 3.37,68.00 18.21,68.00 18.21,68.00
             19.65,68.00 20.83,69.13 20.90,70.55
             22.22,95.40 42.81,115.14 68.00,115.14
             74.23,115.14 80.17,113.93 85.61,111.74
             85.93,111.61 86.27,111.54 86.63,111.54
             87.37,111.54 88.04,111.84 88.53,112.32
             88.53,112.32 99.69,123.48 99.69,123.48
             100.18,123.97 100.48,124.64 100.48,125.39
             100.48,126.43 99.89,127.33 99.03,127.78
             89.76,132.61 79.20,135.34 68.00,135.34
             31.74,135.34 2.16,106.71 0.68,70.83
             0.68,70.79 0.67,70.74 0.67,70.69
             0.67,69.21 1.88,68.00 3.37,68.00
             3.37,68.00 3.37,68.00 3.37,68.00
             3.37,68.00 3.37,68.00 3.37,68.00 Z
           M 46.56,22.76
           C 46.56,22.76 47.47,23.68 47.47,23.68
             47.96,24.17 48.64,24.47 49.38,24.47
             49.74,24.47 50.08,24.40 50.39,24.27
             55.80,22.07 61.76,20.86 68.00,20.86
             72.40,20.86 76.66,21.46 80.70,22.59
             81.48,22.81 82.11,23.37 82.44,24.10
             82.44,24.10 87.47,35.34 87.47,35.34
             87.89,36.28 88.83,36.94 89.93,36.94
             89.93,36.94 89.93,36.94 89.93,36.94
             89.93,36.94 102.23,36.94 102.23,36.94
             102.23,36.94 102.23,36.94 102.23,36.94
             103.07,36.94 103.81,37.32 104.31,37.91
             110.58,45.46 114.54,54.99 115.10,65.43
             115.16,66.86 116.34,68.00 117.79,68.00
             117.79,68.00 132.63,68.00 132.63,68.00
             132.63,68.00 132.63,68.00 132.63,68.00
             134.12,68.00 135.32,66.79 135.32,65.31
             135.32,65.27 135.32,65.23 135.32,65.19
             134.61,47.92 127.40,32.33 116.06,20.80
             115.57,20.30 114.89,20.00 114.14,20.00
             114.14,20.00 114.14,20.00 114.14,20.00
             114.14,20.00 100.94,20.00 100.94,20.00
             100.94,20.00 100.94,20.00 100.94,20.00
             99.84,20.00 98.90,19.34 98.48,18.40
             98.48,18.40 93.08,6.33 93.08,6.33
             92.79,5.68 92.24,5.16 91.56,4.91
             84.27,2.16 76.31,0.66 68.00,0.66
             56.81,0.66 46.26,3.39 36.97,8.21
             36.10,8.65 35.51,9.56 35.51,10.60
             35.51,11.35 35.81,12.03 36.31,12.52
             36.31,12.52 46.56,22.76 46.56,22.76 Z
           M 15.21,26.15
           C 18.42,22.11 22.08,18.45 26.12,15.24
             26.58,14.87 27.17,14.66 27.80,14.66
             28.55,14.66 29.22,14.96 29.71,15.45
             29.71,15.45 61.33,47.05 61.33,47.05
             61.82,47.54 62.12,48.21 62.12,48.95
             62.12,49.70 61.82,50.37 61.33,50.86
             61.33,50.86 50.85,61.33 50.85,61.33
             50.36,61.82 49.69,62.12 48.94,62.12
             48.20,62.12 47.52,61.82 47.04,61.33
             47.04,61.33 15.41,29.73 15.41,29.73
             14.93,29.24 14.63,28.57 14.63,27.83
             14.63,27.19 14.84,26.61 15.21,26.15
             15.21,26.15 15.21,26.15 15.21,26.15 Z
           M 106.29,120.55
           C 106.29,120.55 74.67,88.95 74.67,88.95
             74.18,88.46 73.88,87.79 73.88,87.05
             73.88,86.30 74.18,85.63 74.67,85.14
             74.67,85.14 85.15,74.67 85.15,74.67
             85.64,74.18 86.31,73.88 87.06,73.88
             87.80,73.88 88.48,74.18 88.96,74.67
             88.96,74.67 120.59,106.27 120.59,106.27
             121.07,106.76 121.37,107.43 121.37,108.17
             121.37,108.81 121.16,109.39 120.79,109.85
             117.58,113.89 113.92,117.55 109.88,120.76
             109.42,121.13 108.83,121.34 108.20,121.34
             107.45,121.34 106.78,121.04 106.29,120.55
             106.29,120.55 106.29,120.55 106.29,120.55 Z
           M 66.09,55.62
           C 66.09,55.62 55.61,66.10 55.61,66.10
             55.12,66.58 54.82,67.26 54.82,68.00
             54.82,68.74 55.12,69.42 55.61,69.90
             55.61,69.90 66.09,80.38 66.09,80.38
             66.58,80.87 67.26,81.17 68.00,81.17
             68.74,81.17 69.42,80.87 69.91,80.38
             69.91,80.38 80.39,69.90 80.39,69.90
             80.88,69.42 81.18,68.74 81.18,68.00
             81.18,67.26 80.88,66.58 80.39,66.10
             80.39,66.10 69.91,55.62 69.91,55.62
             69.42,55.13 68.74,54.83 68.00,54.83
             67.26,54.83 66.58,55.13 66.09,55.62
             66.09,55.62 66.09,55.62 66.09,55.62 Z" />
</svg>
